# xmcd
#
# Track frame offsets:
#	150
#	15441
#	33458
#	46317
#	63150
#	77682
#	95456
#	109683
#	124343
#	144149
#	158644
#
# Disc length: 2299 seconds
#
# Revision: 0
# Processed by: cddbd v1.5.2PL0 Copyright (c) Steve Scherf et al.
# Submitted via: EasyCDDAExtractor 12.0.1.1
#
DISCID=7e08f90b
DTITLE=Cledus T. Judd - Polyrically Uncorrect
DYEAR=2009
DGENRE=Country
TTITLE0=Polyrically Uncorrect
TTITLE1=Garth Must Be Busy
TTITLE2=(If I Had) Kellie Pickler's Boobs
TTITLE3=Waitin' On Obama
TTITLE4=Cooter
TTITLE5=Washing Airplanes
TTITLE6=Tailgaitin'
TTITLE7=Hard Time
TTITLE8=Merger On Music Row
TTITLE9=Dang It', I'm Vixen
TTITLE10=Christmas in Rehab
EXTD=
EXTT0=
EXTT1=
EXTT2=
EXTT3=
EXTT4=
EXTT5=
EXTT6=
EXTT7=
EXTT8=
EXTT9=
EXTT10=
PLAYORDER=
